<?xml version="1.0" encoding="utf-8"?>
<!-- Generator: Adobe Illustrator 22.1.0, SVG Export Plug-In . SVG Version: 6.00 Build 0)  -->
<svg version="1.1" id="Layer_1" xmlns="http://www.w3.org/2000/svg" xmlns:xlink="http://www.w3.org/1999/xlink" x="0px" y="0px"
	 viewBox="0 0 1433.7 551" style="enable-background:new 0 0 1433.7 551;" xml:space="preserve">
<style type="text/css">
	.st0{fill:#68BE60;}
	.st1{fill:#FFFFFF;}
</style>
<path d="M292.4,398.7c-0.5,30.2-9.7,58-33.5,81.7c-19.5,19.4-44,33-72.9,41.4c-9.1,2.6-18.7,3-28.1,1.9c-16.2-2-32.2-5-47.3-10.2
	c-16.2-5.6-28-15.3-38.2-26.6c-18.5-20.6-24.1-44.1-21.3-69c3.4-30.5,16.1-58.6,33.7-85.4c4.7-7.1,9.4-14.3,12.9-21.8
	c5.1-11,6.7-22.6,7.9-34.3c1.5-14,3-28,5.5-41.9c2-11,8.3-20.8,17-29.4c1.5-1.5,2.6-3.3,4-4.9c4.6-5.3,11.5-8.5,18.8-10.1
	c5.1-1.1,10.9-0.5,16.3,0c16.9,1.5,28.8,9.4,39.4,19.8c15.1,14.8,21.2,31.9,23.5,50.4c1.5,11.7,6.7,22.4,14.4,32.3
	c8.4,10.7,17.3,21.2,24.9,32.2c11,15.7,16.9,33,20.3,50.8C291.1,383.3,291.5,391,292.4,398.7z M279.9,400.1
	c-0.5-5.5-0.3-11-1.7-16.3c-3.3-12.1-6.8-24.2-11.3-36c-5.6-14.3-16.9-26.1-27.1-38.4c-12.4-15-20.9-31.1-23-49.3
	c-2.6-22.1-15.4-40.1-36.5-53.7c-9.2-6-20.4-10-32.1-2.7c-3.7,2.3-8.1,4-11,6.7c-3.5,3.2-6,7.2-8.5,11c-7.1,11.1-8.3,23.3-9.8,35.5
	c-1.1,9.3-1.3,18.7-2.2,28c-1.7,17.6-8.9,33.6-19.4,49c-14.8,21.5-25.4,44.4-31.4,68.7c-6.4,25.7-4.4,50.4,14.1,72.8
	c9.3,11.3,20,21.4,35.3,27.7c11.2,4.6,23.2,6.6,35.2,9.2c15.7,3.4,30.5,1.8,45.1-3.6c19.7-7.2,36.8-17.1,50.7-30.6
	c12.1-11.8,21.8-24.8,26.9-39.5C277.4,426,280.2,413.2,279.9,400.1z"/>
<path d="M261.4,170.4c-8.5,13.3-16.9,26.9-30.8,35.7C216,190.5,201,177,179.5,171.9c-15.8-3.7-30.2-1.1-45,3.3
	c-14.3,4.3-25.8,12.5-35.1,24c-0.7,0.8-1.3,1.7-2.1,2.4c-6.7,6.1-8.2,5.8-12.8-1.8c-2.3-3.8-5-7.4-7-11.3c-3.2-6.4-6.1-13-5.6-20.4
	c0.1-2.1,1.2-4.6,2.7-6c7-6.2,13.9-12.5,21.5-17.8c20.1-14.1,43.2-19.4,67.3-21.4c12.6-1,24.9-1.4,37.3,1.7
	c14.1,3.5,25.8,10.8,36,20.9c4.6,4.5,9.6,8.5,14.3,12.9c1.5,1.4,2.5,3.3,3.8,5c1.6,2.2,3.2,4.4,4.8,6.6
	C260.1,170.1,260.7,170.2,261.4,170.4z M187.3,161.8c1.4-7.3,2.5-13.7,4-20.1c1.6-7.3,1.4-7.6-5.9-8.2c-4.1-0.4-5.1,1.2-5.2,5.2
	c-0.1,6.9-1,9.4-3,20.8C180.8,160.3,184,161,187.3,161.8z M146.4,136c1.7,8.2,3.2,15.5,4.7,23.1c1-0.1,3.1-0.1,5.1-0.6
	c0.9-0.2,2.3-1.5,2.2-2.2c-0.3-7.1-0.8-14.1-1.3-21.7C153.3,135.1,149.9,135.6,146.4,136z M90.2,161.3c2.5,4.9,4.8,9.4,7.1,13.9
	c3.4,6.9,3.9,7,9.6,2.2c0.3-0.3,0.5-0.7,0.8-1c-3.5-6.8-7-13.4-10.6-20.4C94.8,157.6,92.7,159.3,90.2,161.3z M127,140.7
	c-9.7,2.4-10.6,4.4-5.9,12.4c1.8,3,3.6,6,5.2,9.1c1.8,3.6,3.8,3.9,6.5,1.3C130.9,155.9,129,148.5,127,140.7z M214.5,172.7
	c2.1-6.2,4.2-11.9,6-17.6c1.7-5.4,0.6-7.2-5.6-9.4c-2.1,7.9-4.2,15.7-6.3,23.8C210.2,170.3,212,171.3,214.5,172.7z M234.6,163.5
	c-3.2,5.1-6.6,10.1-9.4,15.4c-0.5,1,1.3,3.5,2.5,4.8c0.4,0.4,2.7-0.2,3.5-1c2.3-2.6,4.4-5.5,6.4-8.3
	C242.3,168.2,244.1,168.7,234.6,163.5z"/>
<path d="M175.3,66.7c1.7,11.4,3.2,23.1,5.1,34.7c1.6,9.3-5.7,15.5-15.9,13.7c-3.8-0.7-8.1-0.3-11.9,0.4c-3.4,0.7-4.8-0.3-5-3
	c-0.3-3.2-0.6-6.5,0.1-9.7c2.8-14.4,5.9-28.7,9-43c2-9.2,4.4-18.4,6.5-27.5c0.5-2,1.3-3.1,4-3c6.4,0.3,7.9,1.1,8,7
	C175.5,46.3,175.3,56.3,175.3,66.7z"/>
<path d="M215.1,115.9c-6,1.3-11.1-1.2-16.3-3.1c-2.4-0.9-2.6-8.5-0.3-11.4c4.1-5.1,8.7-9.8,12.7-15.1c5.8-7.7,11.2-15.7,16.8-23.5
	c2.5-3.5,8.9-4.5,12.1-1.8c0.8,0.7,1.2,2.5,0.9,3.6c-4.6,16.5-9.1,33-14.4,49.2C225.6,117.2,215.7,117.7,215.1,115.9z"/>
<path d="M112.4,121.1c-1.8,0-3.3,0.1-4.9,0c-4.6-0.4-7.1-3-7.7-7.6c-1.5-11.8-3.2-23.6-4.8-35.4c-0.9-6.5-1.9-13-2.7-19.5
	c-0.2-2.1-0.9-5.1,2.2-5.5c3.2-0.4,7.1-0.8,8.6,3.2c2.4,6.1,3.9,12.6,6.6,18.5c3.5,7.9,7.8,15.4,11.7,23.2c1.7,3.4,3.9,6.8,4.6,10.4
	c0.5,2.4-0.2,6.2-1.8,7.7C121,119,117.4,122.5,112.4,121.1z"/>
<path d="M237.4,129.3c-0.8-3.5,1.3-5.5,4.6-7.8c7.4-5.1,14.3-10.7,21.3-16.3c3.2-2.5,9.2-3.5,12.2-1.2c0.9,0.7,1.4,2.9,1,4
	c-3.9,10.8-7,21.9-12.4,31.9c-2.5,4.8-9.3,7.3-14.3,10.7c-0.5,0.3-2.2-0.4-2.8-1.1C242.2,143.8,237.3,138.1,237.4,129.3z"/>
<path d="M51.9,101.6c2.8,0.2,5.8,1.2,8.2,5.8c3.7,7.1,9.2,13.3,14,19.8c0.6,0.9,1.5,1.6,2.2,2.4c5.4,6.2,5,9.7-1.9,14
	c-3.9,2.4-8.1,4.3-12.1,6.4c-3.7,2-5.5-0.1-6.3-3.3c-2.4-8.9-4.6-17.7-6.9-26.6c-1.1-4.4-2.3-8.8-3.3-13.3
	C44.9,103,46.5,101.1,51.9,101.6z"/>
<g>
	<path d="M852,320.9c30.5-7.3,56-20.4,74.5-45c1.2-1.6,2.3-3.2,3.3-4.9c3.9-6.8,12-8.9,17.8-3.9c1.5,1.3,1.6,6.6,0.2,8.6
		c-5.4,8-10.8,16.3-17.7,22.8c-20.8,19.9-45.6,32.9-73.4,39.9c-6.2,1.6-6.7,5-7.3,9.8c-2.5,19.3-7.3,37.9-16.6,55.2
		c-7.1,13.3-16.7,24-30.5,30.9c-15.3,7.6-31.1,2.8-39-12.6c-7.1-13.7-8.9-28.3-8.9-43.4c0-3.2,0.4-6.4-0.9-10.1
		c-1.7,2.4-3.4,4.8-5.3,7.1C734.7,391.7,722,409,707,424.1c-7.7,7.7-19.2,12-29.6,16.3c-3.3,1.4-10.1-0.9-12.7-3.8
		c-4.7-5.2-8.7-11.8-10.6-18.5c-7.9-27.6-5.5-55.7-2.2-83.7c0.6-5.1,0.7-10.2-0.3-15.8c-5,9.6-10.1,19.2-15.1,28.9
		c-12.5,23.8-24.2,48.1-43.3,67.5c-6.2,6.3-13.8,11.6-21.3,16.5c-18.7,12-33.7,5-45.2-12.4c-3.2-4.9-5.5-10.4-8.5-16.3
		c-3.3,1.7-6.3,3.3-9.4,4.9c-20.5,10.9-38.5,9.9-57.3-9.9c-12.2-12.9-20.6-29.4-30.7-44.3c-3.9-5.8-7.9-11.5-11.9-17.2
		c-0.7,0.2-1.5,0.3-2.2,0.5c0,6.8,0.1,13.5,0.1,20.3c0.1,12.5,0.2,25.1,0.4,37.6c0,3.2,3.2,27.7-0.8,34.7c-3,5.4-9.9,8.5-15,12.7
		c-0.7-0.3-1.5-0.6-2.2-0.9c-0.5-5.7-1.4-11.4-1.4-17.1c-0.2-29.9-0.1-59.8-0.2-89.6c0-2.5-0.7-5.1-1.1-7.5
		c-11.2,4.3-21.8,8.4-32.4,12.3c-2,0.8-4.5,1.7-6.4,1.2c-2-0.5-4.7-2.4-5.1-4.1c-2.6-11.4-0.1-17.6,10.9-22.2
		c8.3-3.5,17.5-5.2,26.5-7.1c4-0.8,7.1-0.7,6.9-6.3c-0.5-16.2-0.9-32.5-0.7-48.7c0.3-24.4,1.1-48.8,1.5-73.2
		c0.1-7.9-0.9-15.8-0.9-23.7c0-3.3-1.4-8.2,4.4-8.7c7.1-0.6,12.8,3.1,13.1,8.5c0.7,12.1,1.6,24.1,1.6,36.2c0,21.8-0.7,43.5-0.9,65.3
		c-0.1,11.6,0.1,23.2,0.2,34.8c0.6,0.4,1.2,0.8,1.8,1.1c5-4.6,10.4-8.8,15-13.8c30.5-32.5,58.1-67.2,80.4-105.8
		c7.4-12.9,13.9-26.4,20.2-39.9c3.5-7.6,8.2-2.9,12.6-2.4c5.9,0.7,3.8,4.7,2.5,7.3c-8.5,17.6-15.9,35.9-26.2,52.3
		c-25.5,40.4-54,78.8-89.9,111c-3.6,3.2-7.3,6.3-11,9.5c-0.3,0.3-0.3,0.8-0.6,1.7c21.4,11.3,28.5,34.1,41.8,52.2
		c6.6,9,13.6,17.9,21.9,25.2c11,9.8,28.3,8.1,38.4-2.5c1.6-1.7,1.9-5.2,1.7-7.8c-2.4-28.3-1.1-56.4,8.9-83.2
		c3.4-9.2,9.1-18.2,15.7-25.5c10.9-12.1,23.8-10.3,36.6-2.6c8.9,5.4,8.8,15.7,7.4,24.5c-5,31.8-16.1,61.1-37.3,86
		c-10.7,12.6-10.8,15.2-0.9,29.1c0.4,0.5,0.7,1.1,1.2,1.6c10.6,11.7,13.4,13.2,27,3c14.8-11.2,24.7-26.7,33.5-42.8
		c19-35.2,37.8-70.5,56.5-105.9c3.6-6.9,6.1-14.3,9.8-23.1c-11.1,0.5-20,1-28.9,1.3c-8.3,0.3-16.7,0.3-25,0.8
		c-6.7,0.4-7.4-3.5-7.3-8.8c0.1-5.2,1.2-7.8,7.5-8c18.6-0.5,37.3-1.9,55.9-3.3c1.6-0.1,3.5-2.6,4.3-4.4
		c8.7-20.4,17.1-40.9,25.7-61.3c0.7-1.6,1.8-3,2.6-4.6c5.4-11.5,4.2-14.5,22.7-7.4c-9.7,24.8-19.4,49.5-29.6,75.7
		c9-0.9,17-2.3,24.9-2.4c6.9-0.2,13.9,0.7,20.7,1.7c2,0.3,5.3,2.7,5.2,3.9c-0.2,2.2-2,5.6-3.9,6.2c-5.3,1.8-9.5,5.4-16,5.3
		c-11.1-0.2-22.3,1.9-33.5,2.8c-3.8,0.3-6.1,1.8-7.1,5.5c-4.3,16.6-10,32.9-12.8,49.7c-4.2,25.8-7,51.8-9.1,77.9
		c-1.2,14.2,0.6,28.5,6.5,42c4.4,10,7,11.3,15.3,3.8c10.1-9.1,19.9-18.7,28.3-29.3c17.1-21.5,32.4-44.3,44.4-69.2
		c1.5-3.2,1.9-7.6,1.1-11.1c-6.3-26.3-0.9-49.7,16.3-70.3c9.6-11.5,22-10.6,35.1-6.9c15.6,4.4,21.8,16.9,27,30.2
		c6.7,16.9,8.8,34.8,9.4,52.9C851.7,315.5,851.9,317.8,852,320.9z M780,328.2c-5.5,20.6-9.5,40.2-6,60.1c1.5,8.8,5.7,17.4,10.2,25.2
		c4.2,7.3,10.6,7.4,17.3,2.1c1.4-1.1,2.6-2.3,3.9-3.6c12.9-12.4,17.9-28.8,22.4-45.3c2.1-7.6,3.2-15.5,5-24.2
		C813.1,342.3,796.1,338.1,780,328.2z M832.4,323.2c0.4-0.9,0.7-1.3,0.8-1.7c0.2-1.1,0.3-2.2,0.3-3.3c-0.7-19.5-3.7-38.5-13.2-55.8
		c-2.9-5.2-7.5-9.7-12.1-13.5c-6.7-5.5-12.5-4.3-17.2,2.8c-6.4,9.7-11,20.2-10.3,32.1c0.4,5.8,1.3,12.4,4.4,16.9
		C796.3,317.2,812.9,323.7,832.4,323.2z M531,366.1c0.8,0.1,1.6,0.1,2.3,0.2c0.6-0.6,1.3-1.1,1.8-1.8c12.1-16.1,20.4-34.2,25.9-53.5
		c1.8-6.3,3.1-12.8,3.9-19.3c0.6-5.4-2.5-10-7.7-10.8c-3-0.4-7.4,2-9.6,4.6c-3.2,3.7-6.2,8.3-7.3,13c-3.5,14-6.6,28.1-8.8,42.4
		C530.2,349.2,531.1,357.7,531,366.1z"/>
	<path d="M1070.4,404.2c1.7-11.6,3.4-23.3,5.2-34.9c3.3-21.3,6.4-42.5,9.9-63.8c3.5-21.2,6.7-42.5,11.1-63.6
		c3.7-17.6,9-34.8,13.5-52.2c1-3.6,3-5.2,6.8-4.2c2.7,0.7,6,0.6,8.1,2.1c1.7,1.2,3.3,4.6,2.8,6.5c-4.3,16.7-10.5,33.1-13.6,50
		c-7.8,43.2-14.3,86.7-21.4,130.1c-2.6,16-5.3,32.1-8,48.1c-1.9,11.5-9.6,17.9-19.7,21.9c-4.9,1.9-6-2.7-7-5.8
		c-3.5-10.8-7.1-21.7-9.8-32.8c-10.5-42.8-20.7-85.8-31-128.6c-0.6-2.7-1.6-5.3-3.7-7.9c-1.5,8.7-3,17.4-4.6,26.1
		c-5.1,29.2-10.5,58.3-15.3,87.5c-1.1,6.5,0,13.3-1,19.7c-1.1,6.9-3.4,13.6-5.2,20.4c-0.1,0.4-0.3,0.8-0.4,1.3
		c-0.8,11.5-8,17.2-19.6,20.5c0-6.1-0.7-12.1,0.2-17.7c3.5-21.4,7.6-42.7,11.3-64.1c3.6-20.7,7.1-41.5,10.6-62.2
		c3.2-18.6,7-37.1,9.3-55.8c1.5-12.5,5.5-25.1,1.7-37.9c-0.3-1-0.3-2.2-0.1-3.3c0.8-3.6-2.7-9.1,3.6-10.3
		c6.5-1.2,14.3,4.6,15.6,10.2c6.5,27.6,13.1,55.1,19.7,82.6c6.9,28.6,13.7,57.2,20.7,85.8c2.6,10.8,5.6,21.6,8.5,32.4
		C1069.3,404.2,1069.9,404.2,1070.4,404.2z"/>
	<path d="M1379.3,239.6c0.3-5.3-0.5-10.6,1.1-15c4-11.3-9.8-30.9-24.3-29.8c-4.6,0.4-9.7,4.1-13.1,7.6c-12.1,12.5-20,27.8-26.8,43.6
		c-10.9,25.5-21.1,51.5-23.8,79.2c-2.7,27.9-3.9,56.3,7.8,83.1c8.3,19,28.8,23,44.4,9.4c14.5-12.6,25-28.2,35.9-43.6
		c4.6-6.5,13.3-8.8,19.2-4.2c1,0.7,0.7,4.7-0.4,6.2c-9.2,13.2-18.4,26.3-28.1,39c-8.4,11-19.8,18.4-32,25.1
		c-17.4,9.4-50.2,2.7-58.5-22.5c-6.3-18.9-8.7-38.1-8.6-57.6c0.1-14.7,0.3-29.7,2.8-44.1c3-17,8.1-33.6,13.2-50.1
		c7.5-24,18.3-46.6,33.7-66.7c4.2-5.5,9.3-10.6,14.6-15.1c13.7-11.4,28.6-9.4,43.3-2.3c13.2,6.4,18.6,18.7,18.4,32
		C1398.2,226.1,1397,234.8,1379.3,239.6z"/>
	<path d="M1208.8,271.4c3.3-12.8,6.3-25.8,10-38.5c5.7-19.6,11.6-39.1,17.8-58.5c3-9.5,3.9-9.6,13.7-6.2c1.2,0.4,2.5,0.5,4.7,1
		c-1.3,5.3-2.3,10.4-3.9,15.2c-13.1,40.8-22.7,82.5-30.6,124.6c-4.5,23.9-8,48.1-11.3,72.3c-0.8,5.8-8.2,40.9-10.2,46.9
		c-2.5,7.6-6.5,12.7-13.9,15.3c-1.4,0.5-6.2-3.2-5.9-5.7c2.9-22.8,13.5-75,16.9-97.8c2.6-17.1,7.1-43.6,7.1-43.6
		c-3.4-7.6-16-28.9-19.8-36.7c-10.5-21.8-21.3-36.4-31.5-58.3c-1.8-3.8-1-8.9-0.9-13.5c0-0.7,2.6-2.1,3.9-2c7,0.7,13,3,16.4,10.2
		c9.9,21.3,20.2,42.5,30.4,63.7c1.9,3.9,3.6,7.9,5.4,11.8C1207.8,271.5,1208.3,271.4,1208.8,271.4z"/>
	<path d="M880.2,417.6c0.4-13.2,6.8-17.6,19.2-13.2c9.4,3.3,12.7,19.1,5.2,25.5c-1.5,1.3-3.3,2.2-5,3.2
		c-13.3,7.5-19.9,3.4-19.7-12.1C880,419.8,880.1,418.7,880.2,417.6z"/>
</g>
<path class="st0" d="M279.9,400.1c0.3,13.1-2.5,25.9-6.8,38.4c-5.1,14.8-14.7,27.8-26.9,39.5c-13.9,13.5-31,23.4-50.7,30.6
	c-14.6,5.4-29.4,6.9-45.1,3.6c-12-2.6-24-4.6-35.2-9.2c-15.3-6.3-26-16.4-35.3-27.7c-18.5-22.5-20.4-47.1-14.1-72.8
	c6-24.2,16.6-47.1,31.4-68.7c10.5-15.3,17.7-31.4,19.4-49c0.9-9.3,1.1-18.7,2.2-28c1.5-12.1,2.7-24.4,9.8-35.5c2.5-3.8,5-7.8,8.5-11
	c3-2.7,7.4-4.4,11-6.7c11.7-7.3,22.9-3.3,32.1,2.7c21.1,13.6,33.9,31.6,36.5,53.7c2.2,18.2,10.6,34.3,23,49.3
	c10.2,12.3,21.5,24.1,27.1,38.4c4.6,11.8,8.1,23.9,11.3,36C279.6,389,279.4,394.6,279.9,400.1z M116.6,406.9c0.6,4.3,0.7,8.7,1.9,13
	c2.6,9.8,8.7,17.8,21.1,20.8c21.6,5.3,42.1,3.9,60.1-8.4c14.3-9.7,21.6-22,17-37c-2.2-7-7.4-13.6-12.2-19.9
	c-8.6-11.4-32.3-17.4-48-13.3C136.4,367.4,115.8,384.8,116.6,406.9z"/>
<path d="M116.6,403.2c-0.8-25.1,19.8-44.9,39.8-50.9c15.7-4.7,39.4,2.2,48,15.1c4.8,7.2,10.1,14.6,12.2,22.6
	c4.6,17.1-2.7,31.1-17,42.1c-18,13.9-38.5,15.6-60.1,9.5c-12.4-3.5-18.5-12.5-21.1-23.7C117.4,413.1,117.2,408.1,116.6,403.2z
	 M166.9,371.1c-18-1.9-29.3,12-23.2,27.7C148.6,387.5,154.5,377.6,166.9,371.1z"/>
<path class="st1" d="M166.9,371.1c-12.4,6.6-18.4,16.4-23.2,27.7C137.7,383.1,149,369.1,166.9,371.1z"/>
</svg>
