<?xml version="1.0" encoding="utf-8"?>
<!-- Generator: Adobe Illustrator 22.1.0, SVG Export Plug-In . SVG Version: 6.00 Build 0)  -->
<svg version="1.1" id="Layer_1" xmlns="http://www.w3.org/2000/svg" xmlns:xlink="http://www.w3.org/1999/xlink" x="0px" y="0px"
	 viewBox="0 0 500 500" style="enable-background:new 0 0 500 500;" xml:space="preserve">
<style type="text/css">
	.st0{fill:#010101;}
	.st1{fill:#6ABF61;}
	.st2{fill:#FFFFFF;}
</style>
<path class="st0" d="M374.5,372.5c-0.5,30.1-9.7,57.9-33.4,81.5c-19.5,19.4-43.9,32.9-72.7,41.3c-9.1,2.6-18.7,3-28,1.9
	c-16.2-2-32.1-5-47.2-10.2c-16.2-5.6-27.9-15.3-38.1-26.5c-18.5-20.6-24-44-21.2-68.8c3.4-30.4,16.1-58.5,33.6-85.2
	c4.7-7.1,9.4-14.3,12.9-21.7c5.1-11,6.7-22.5,7.9-34.2c1.5-14,3-27.9,5.5-41.8c2-11,8.3-20.8,17-29.3c1.5-1.5,2.6-3.3,4-4.9
	c4.6-5.3,11.5-8.5,18.8-10.1c5.1-1.1,10.9-0.5,16.3,0c16.9,1.5,28.7,9.4,39.3,19.8c15.1,14.8,21.1,31.8,23.4,50.3
	c1.5,11.7,6.7,22.3,14.4,32.2c8.4,10.7,17.3,21.1,24.8,32.1c11,15.7,16.9,32.9,20.3,50.7C373.2,357.2,373.6,364.9,374.5,372.5z
	 M362.1,373.9c-0.5-5.5-0.3-11-1.7-16.3c-3.3-12.1-6.8-24.1-11.3-35.9c-5.6-14.3-16.9-26-27-38.3c-12.4-15-20.9-31-22.9-49.2
	c-2.6-22-15.4-40-36.4-53.6c-9.2-6-20.4-10-32-2.7c-3.7,2.3-8.1,4-11,6.7c-3.5,3.2-6,7.2-8.5,11c-7.1,11.1-8.3,23.2-9.8,35.4
	c-1.1,9.3-1.3,18.7-2.2,27.9c-1.7,17.6-8.9,33.5-19.4,48.9c-14.8,21.4-25.3,44.3-31.3,68.5c-6.4,25.6-4.4,50.3,14.1,72.6
	c9.3,11.3,20,21.3,35.2,27.6c11.2,4.6,23.1,6.6,35.1,9.2c15.7,3.4,30.4,1.8,45-3.6c19.7-7.2,36.7-17.1,50.6-30.5
	c12.1-11.8,21.7-24.7,26.8-39.4C359.6,399.8,362.4,387,362.1,373.9z"/>
<path class="st0" d="M343.6,144.8c-8.5,13.3-16.9,26.8-30.7,35.6c-14.6-15.6-29.5-29-51-34.1c-15.8-3.7-30.1-1.1-44.9,3.3
	c-14.3,4.3-25.7,12.5-35,23.9c-0.7,0.8-1.3,1.7-2.1,2.4c-6.7,6.1-8.2,5.8-12.8-1.8c-2.3-3.8-5-7.4-7-11.3c-3.2-6.4-6.1-13-5.6-20.4
	c0.1-2.1,1.2-4.6,2.7-6c7-6.2,13.9-12.5,21.4-17.8c20.1-14.1,43.1-19.4,67.1-21.3c12.6-1,24.8-1.4,37.2,1.7
	c14.1,3.5,25.7,10.8,35.9,20.9c4.6,4.5,9.6,8.5,14.3,12.9c1.5,1.4,2.5,3.3,3.8,5c1.6,2.2,3.2,4.4,4.8,6.6
	C342.3,144.5,342.9,144.6,343.6,144.8z M269.7,136.2c1.4-7.3,2.5-13.7,4-20.1c1.6-7.3,1.4-7.6-5.9-8.2c-4.1-0.4-5.1,1.2-5.2,5.2
	c-0.1,6.9-1,9.4-3,20.8C263.2,134.7,266.4,135.4,269.7,136.2z M228.9,110.5c1.7,8.2,3.2,15.5,4.7,23c1-0.1,3.1-0.1,5.1-0.6
	c0.9-0.2,2.3-1.5,2.2-2.2c-0.3-7.1-0.8-14.1-1.3-21.6C235.8,109.6,232.4,110.1,228.9,110.5z M172.8,135.7c2.5,4.9,4.8,9.4,7.1,13.9
	c3.4,6.9,3.9,7,9.6,2.2c0.3-0.3,0.5-0.7,0.8-1c-3.5-6.8-7-13.4-10.6-20.4C177.4,132,175.3,133.7,172.8,135.7z M209.5,115.1
	c-9.7,2.4-10.6,4.4-5.9,12.4c1.8,3,3.6,6,5.2,9.1c1.8,3.6,3.8,3.9,6.5,1.3C213.4,130.3,211.5,122.9,209.5,115.1z M296.8,147.1
	c2.1-6.2,4.2-11.9,6-17.6c1.7-5.4,0.6-7.2-5.6-9.4c-2.1,7.9-4.2,15.7-6.3,23.7C292.5,144.7,294.3,145.7,296.8,147.1z M316.9,137.9
	c-3.2,5.1-6.6,10.1-9.4,15.4c-0.5,1,1.3,3.5,2.5,4.8c0.4,0.4,2.7-0.2,3.5-1c2.3-2.6,4.4-5.5,6.4-8.3
	C324.5,142.6,326.3,143.1,316.9,137.9z"/>
<path class="st0" d="M257.7,41.3c1.7,11.4,3.2,23,5.1,34.6c1.6,9.3-5.7,15.5-15.9,13.7c-3.8-0.7-8.1-0.3-11.9,0.4
	c-3.4,0.7-4.8-0.3-5-3c-0.3-3.2-0.6-6.5,0.1-9.7c2.8-14.4,5.9-28.6,9-42.9c2-9.2,4.4-18.4,6.5-27.4c0.5-2,1.3-3.1,4-3
	c6.4,0.3,7.9,1.1,8,7C257.9,21,257.7,30.9,257.7,41.3z"/>
<path class="st0" d="M297.4,90.4c-6,1.3-11.1-1.2-16.3-3.1c-2.4-0.9-2.6-8.5-0.3-11.4c4.1-5.1,8.7-9.8,12.7-15.1
	c5.8-7.7,11.2-15.7,16.8-23.4c2.5-3.5,8.9-4.5,12.1-1.8c0.8,0.7,1.2,2.5,0.9,3.6c-4.6,16.5-9.1,32.9-14.4,49.1
	C307.9,91.7,298,92.2,297.4,90.4z"/>
<path class="st0" d="M195,95.6c-1.8,0-3.3,0.1-4.9,0c-4.6-0.4-7.1-3-7.7-7.6c-1.5-11.8-3.2-23.5-4.8-35.3c-0.9-6.5-1.9-13-2.7-19.5
	c-0.2-2.1-0.9-5.1,2.2-5.5c3.2-0.4,7.1-0.8,8.6,3.2c2.4,6.1,3.9,12.6,6.6,18.5c3.5,7.9,7.8,15.4,11.7,23.1c1.7,3.4,3.9,6.8,4.6,10.4
	c0.5,2.4-0.2,6.2-1.8,7.7C203.5,93.5,199.9,97,195,95.6z"/>
<path class="st0" d="M319.7,103.8c-0.8-3.5,1.3-5.5,4.6-7.8c7.4-5.1,14.3-10.7,21.2-16.3c3.2-2.5,9.2-3.5,12.2-1.2
	c0.9,0.7,1.4,2.9,1,4c-3.9,10.8-7,21.8-12.4,31.8c-2.5,4.8-9.3,7.3-14.3,10.7c-0.5,0.3-2.2-0.4-2.8-1.1
	C324.4,118.2,319.6,112.5,319.7,103.8z"/>
<path class="st0" d="M134.6,76.1c2.8,0.2,5.8,1.2,8.2,5.8c3.7,7.1,9.2,13.3,14,19.8c0.6,0.9,1.5,1.6,2.2,2.4c5.4,6.2,5,9.7-1.9,14
	c-3.9,2.4-8.1,4.3-12.1,6.4c-3.7,2-5.5-0.1-6.3-3.3c-2.4-8.9-4.6-17.7-6.9-26.5c-1.1-4.4-2.3-8.8-3.3-13.3
	C127.6,77.5,129.2,75.6,134.6,76.1z"/>
<path class="st1" d="M362.1,373.9c0.3,13.1-2.5,25.8-6.8,38.3c-5.1,14.8-14.7,27.7-26.8,39.4c-13.9,13.5-30.9,23.3-50.6,30.5
	c-14.6,5.4-29.3,6.9-45,3.6c-12-2.6-23.9-4.6-35.1-9.2c-15.3-6.3-25.9-16.4-35.2-27.6c-18.5-22.4-20.4-47-14.1-72.6
	c6-24.1,16.6-47,31.3-68.5c10.5-15.3,17.7-31.3,19.4-48.9c0.9-9.3,1.1-18.7,2.2-27.9c1.5-12.1,2.7-24.3,9.8-35.4
	c2.5-3.8,5-7.8,8.5-11c3-2.7,7.4-4.4,11-6.7c11.7-7.3,22.8-3.3,32,2.7c21.1,13.6,33.8,31.5,36.4,53.6c2.2,18.2,10.6,34.2,22.9,49.2
	c10.2,12.3,21.4,24,27,38.3c4.6,11.8,8.1,23.8,11.3,35.9C361.8,362.9,361.6,368.4,362.1,373.9z M199.1,380.7c0.6,4.3,0.7,8.7,1.9,13
	c2.6,9.8,8.7,17.8,21.1,20.8c21.5,5.3,42,3.9,60-8.4c14.3-9.7,21.5-21.9,17-36.9c-2.2-7-7.4-13.6-12.2-19.9
	c-8.6-11.4-32.2-17.4-47.9-13.3C218.9,341.3,198.3,358.7,199.1,380.7z"/>
<path class="st0" d="M199.1,377c-0.8-25,19.8-44.8,39.7-50.8c15.7-4.7,39.3,2.2,47.9,15.1c4.8,7.2,10.1,14.6,12.2,22.5
	c4.6,17.1-2.7,31-17,42c-18,13.9-38.4,15.6-60,9.5c-12.4-3.5-18.5-12.5-21.1-23.6C199.9,386.9,199.7,381.9,199.1,377z M249.3,345
	c-18-1.9-29.2,12-23.1,27.6C231.1,361.4,237,351.5,249.3,345z"/>
<path class="st2" d="M249.3,345c-12.4,6.6-18.4,16.4-23.1,27.6C220.2,357,231.5,343,249.3,345z"/>
</svg>
